# xmcd CD database file
#
# Track frame offsets:
#	150
#	14834
#	30976
#	52700
#	71263
#	87667
#	101856
#	120996
#	136971
#	153391
#
# Disc length: 2273 seconds
#
# Revision: 0
# Processed by: cddbd v1.5.2PL0 Copyright (c) Steve Scherf et al.
# Submitted via: CDex 1.70beta2
#
DISCID=7a08df0a
DTITLE=Rune Gustafsson - Plays Stevie Wonder
DYEAR=1975
DGENRE=Jazz
TTITLE0=For Once In My Life
TTITLE1=Smile Please
TTITLE2=Too High
TTITLE3=They Won't Go When I Go
TTITLE4=Bird Of Beauty
TTITLE5=Boogie On a Reggae Woman
TTITLE6=Superstition
TTITLE7=Don't You Worry 'bout a Thing
TTITLE8=Visions
TTITLE9=Creepin'
EXTD=YEAR: 1975
EXTT0=
EXTT1=
EXTT2=
EXTT3=
EXTT4=
EXTT5=
EXTT6=
EXTT7=
EXTT8=
EXTT9=
PLAYORDER=
